<?xml version="1.0" encoding="UTF-8"?>
<svg xmlns="http://www.w3.org/2000/svg" width="42.21mm" height="55.86mm" viewBox="108.47 58.82 42.21 55.86">
  <path d="M 113.470 76.050 L 113.470 69.950 L 113.475 69.895 L 113.491 69.843 L 113.517 69.794 L 113.552 69.752 L 113.594 69.717 L 113.643 69.691 L 113.695 69.675 L 113.750 69.670 L 119.450 69.670 L 119.505 69.675 L 119.557 69.691 L 119.606 69.717 L 119.648 69.752 L 119.683 69.794 L 119.709 69.843 L 119.725 69.895 L 119.730 69.950 L 119.730 76.050 L 119.725 76.105 L 119.709 76.157 L 119.683 76.206 L 119.648 76.248 L 119.606 76.283 L 119.557 76.309 L 119.505 76.325 L 119.450 76.330 L 113.750 76.330 L 113.695 76.325 L 113.643 76.309 L 113.594 76.283 L 113.552 76.248 L 113.517 76.206 L 113.491 76.157 L 113.475 76.105 L 113.470 76.050 L 113.550 76.050 L 113.550 69.950 L 113.554 69.911 L 113.565 69.873 L 113.584 69.839 L 113.609 69.809 L 113.639 69.784 L 113.673 69.765 L 113.711 69.754 L 113.750 69.750 L 119.450 69.750 L 119.489 69.754 L 119.527 69.765 L 119.561 69.784 L 119.591 69.809 L 119.616 69.839 L 119.635 69.873 L 119.646 69.911 L 119.650 69.950 L 119.650 76.050 L 119.646 76.089 L 119.635 76.127 L 119.616 76.161 L 119.591 76.191 L 119.561 76.216 L 119.527 76.235 L 119.489 76.246 L 119.450 76.250 L 113.750 76.250 L 113.711 76.246 L 113.673 76.235 L 113.639 76.216 L 113.609 76.191 L 113.584 76.161 L 113.565 76.127 L 113.554 76.089 L 113.550 76.050 L 113.630 76.050 L 113.639 76.096 L 113.665 76.135 L 113.704 76.161 L 113.750 76.170 L 119.450 76.170 L 119.496 76.161 L 119.535 76.135 L 119.561 76.096 L 119.570 76.050 L 119.570 69.950 L 119.561 69.904 L 119.535 69.865 L 119.496 69.839 L 119.450 69.830 L 113.750 69.830 L 113.704 69.839 L 113.665 69.865 L 113.639 69.904 L 113.630 69.950 L 113.630 76.050" fill="none" stroke="#000000" stroke-width="0.2"/>
  <path d="M 126.600 97.691 L 126.754 97.888 L 126.925 98.065 L 127.118 98.227 L 127.291 98.346 L 127.422 98.420 L 128.028 98.420 L 128.108 98.397 L 128.325 98.298 L 128.541 98.141 L 128.702 97.965 L 128.736 97.918 L 128.854 97.711 L 128.937 97.456 L 128.963 97.219 L 128.963 97.161 L 128.942 96.953 L 128.932 96.905 L 128.924 96.902 L 128.932 96.905 L 129.496 96.340 L 129.562 96.256 L 129.595 96.203 L 129.639 96.106 L 129.667 96.003 L 129.674 95.960 L 129.680 95.875 L 129.680 92.581 L 129.671 92.577 L 129.680 92.581 L 129.834 92.470 L 129.877 92.430 L 130.036 92.252 L 130.156 92.047 L 130.180 91.993 L 130.252 91.766 L 130.280 91.500 L 130.252 91.234 L 130.180 91.007 L 130.156 90.953 L 130.036 90.748 L 129.877 90.570 L 129.834 90.530 L 129.640 90.392 L 129.396 90.283 L 129.134 90.227 L 128.895 90.225 L 128.837 90.232 L 128.633 90.275 L 128.577 90.293 L 128.360 90.392 L 128.144 90.549 L 127.964 90.748 L 127.831 90.979 L 127.748 91.234 L 127.722 91.471 L 127.722 91.529 L 127.743 91.737 L 127.756 91.794 L 127.831 92.021 L 127.964 92.252 L 128.144 92.451 L 128.320 92.581 L 128.329 92.577 L 128.320 92.581 L 128.320 95.593 L 128.326 95.596 L 128.320 95.593 L 127.966 95.947 L 127.970 95.957 L 127.966 95.947 L 127.819 95.917 L 127.580 95.916 L 127.522 95.922 L 127.318 95.965 L 127.262 95.983 L 127.045 96.081 L 126.829 96.239 L 126.649 96.438 L 126.516 96.669 L 126.433 96.924 L 126.405 97.190 L 126.565 97.190 L 126.589 96.957 L 126.662 96.734 L 126.779 96.532 L 126.945 96.350 L 127.125 96.220 L 127.351 96.122 L 127.580 96.075 L 127.802 96.076 L 128.018 96.121 L 128.480 95.660 L 128.480 92.488 L 128.429 92.463 L 128.251 92.332 L 128.087 92.148 L 127.977 91.956 L 127.908 91.745 L 127.902 91.720 L 127.881 91.487 L 127.904 91.267 L 127.977 91.044 L 128.094 90.842 L 128.242 90.677 L 128.260 90.660 L 128.451 90.524 L 128.654 90.435 L 128.883 90.386 L 129.117 90.386 L 129.346 90.435 L 129.560 90.530 L 129.749 90.668 L 129.906 90.842 L 130.023 91.044 L 130.096 91.267 L 130.119 91.487 L 130.119 91.513 L 130.092 91.745 L 130.023 91.956 L 129.913 92.148 L 129.749 92.332 L 129.571 92.463 L 129.520 92.488 L 129.520 95.875 L 129.512 95.966 L 129.491 96.045 L 129.467 96.103 L 129.426 96.173 L 129.368 96.243 L 128.750 96.861 L 128.781 96.957 L 128.804 97.177 L 128.781 97.423 L 128.708 97.646 L 128.591 97.848 L 128.425 98.030 L 128.245 98.160 L 128.043 98.251 L 127.802 98.304 L 127.568 98.304 L 127.339 98.255 L 127.125 98.160 L 126.936 98.022 L 126.772 97.838 L 126.662 97.646 L 126.593 97.435 L 126.565 97.190 L 126.405 97.190 L 126.426 97.403 L 126.461 97.469 L 126.600 97.691 L 126.581 97.659 L 126.517 97.460 L 126.508 97.419 L 126.485 97.190 L 126.511 96.941 L 126.581 96.721 L 126.598 96.683 L 126.714 96.485 L 126.882 96.298 L 127.085 96.151 L 127.295 96.056 L 127.334 96.043 L 127.560 95.997 L 127.790 95.995 L 127.831 96.000 L 127.992 96.034 L 127.995 96.045 L 127.992 96.034 L 128.400 95.626 L 128.406 95.629 L 128.400 95.626 L 128.400 92.539 L 128.409 92.535 L 128.400 92.539 L 128.382 92.528 L 128.213 92.405 L 128.182 92.377 L 128.029 92.205 L 127.913 92.007 L 127.896 91.969 L 127.826 91.749 L 127.801 91.521 L 127.801 91.479 L 127.826 91.250 L 127.904 91.012 L 128.029 90.795 L 128.182 90.623 L 128.213 90.595 L 128.382 90.472 L 128.419 90.451 L 128.629 90.359 L 128.875 90.307 L 129.125 90.307 L 129.371 90.359 L 129.600 90.461 L 129.787 90.595 L 129.818 90.623 L 129.971 90.795 L 130.087 90.993 L 130.104 91.031 L 130.168 91.230 L 130.177 91.271 L 130.200 91.500 L 130.177 91.729 L 130.168 91.770 L 130.096 91.988 L 129.971 92.205 L 129.818 92.377 L 129.787 92.405 L 129.618 92.528 L 129.600 92.539 L 129.591 92.535 L 129.600 92.539 L 129.600 95.875 L 129.594 95.953 L 129.575 96.045 L 129.527 96.161 L 129.494 96.215 L 129.435 96.288 L 128.841 96.882 L 128.832 96.879 L 128.841 96.882 L 128.859 96.941 L 128.885 97.190 L 128.862 97.419 L 128.853 97.460 L 128.781 97.678 L 128.667 97.878 L 128.643 97.912 L 128.488 98.082 L 128.303 98.218 L 128.266 98.239 L 128.056 98.331 L 127.810 98.383 L 127.580 98.384 L 127.539 98.380 L 127.314 98.331 L 127.193 98.279" fill="none" stroke="#000000" stroke-width="0.2"/>
  <path d="M 126.521 100.258 L 126.454 100.203 L 126.421 100.181 L 126.352 100.144 L 126.316 100.129 L 126.241 100.106 L 126.203 100.099 L 126.105 100.090 L 119.532 100.090 L 119.526 100.101 L 119.532 100.090 L 119.471 99.985 L 119.318 99.813 L 119.287 99.785 L 119.118 99.662 L 119.100 99.651 L 119.091 99.655 L 119.100 99.651 L 119.100 98.849 L 119.091 98.845 L 119.100 98.849 L 119.118 98.838 L 119.287 98.715 L 119.318 98.687 L 119.471 98.515 L 119.587 98.317 L 119.604 98.279 L 119.674 98.059 L 119.700 97.810 L 119.674 97.560 L 119.604 97.341 L 119.587 97.303 L 119.482 97.122 L 119.458 97.088 L 119.303 96.918 L 119.100 96.771 L 118.871 96.669 L 118.646 96.620 L 118.605 96.615 L 118.395 96.615 L 118.354 96.620 L 118.129 96.669 L 117.900 96.771 L 117.697 96.918 L 117.542 97.088 L 117.518 97.122 L 117.413 97.303 L 117.396 97.341 L 117.326 97.560 L 117.301 97.789 L 117.301 97.831 L 117.326 98.059 L 117.396 98.279 L 117.413 98.317 L 117.529 98.515 L 117.682 98.687 L 117.713 98.715 L 117.882 98.838 L 117.900 98.849 L 117.909 98.845 L 117.900 98.849 L 117.900 99.651 L 117.909 99.655 L 117.900 99.651 L 117.882 99.662 L 117.713 99.785 L 117.682 99.813 L 117.529 99.985 L 117.404 100.202 L 117.332 100.420 L 117.323 100.461 L 117.300 100.690 L 117.323 100.919 L 117.332 100.960 L 117.404 101.178 L 117.529 101.395 L 117.697 101.582 L 117.900 101.729 L 118.129 101.831 L 118.375 101.883 L 118.625 101.883 L 118.871 101.831 L 119.100 101.729 L 119.303 101.582 L 119.471 101.395 L 119.532 101.290 L 119.526 101.279 L 119.532 101.290 L 125.856 101.290 L 125.859 101.284 L 125.856 101.290 L 126.529 101.962 L 126.538 101.959 L 126.529 101.962 L 126.511 102.020 L 126.485 102.270 L 126.511 102.519 L 126.589 102.758 L 126.714 102.975 L 126.882 103.162 L 127.085 103.309 L 127.314 103.411 L 127.539 103.460 L 127.580 103.464 L 127.810 103.463 L 128.036 103.417 L 128.075 103.404 L 128.266 103.319 L 128.303 103.298 L 128.488 103.162 L 128.643 102.992 L 128.667 102.958 L 128.781 102.758 L 128.853 102.540 L 128.862 102.499 L 128.885 102.270 L 128.862 102.041 L 128.853 102.000 L 128.781 101.782 L 128.689 101.620 L 128.746 101.668 L 128.851 101.743 L 128.854 101.749 L 128.937 102.004 L 128.965 102.270 L 128.937 102.536 L 128.854 102.791 L 128.720 103.022 L 128.562 103.200 L 128.519 103.240 L 128.325 103.378 L 128.108 103.477 L 128.052 103.495 L 128.028 103.500 L 127.342 103.500 L 127.262 103.477 L 127.071 103.392 L 127.020 103.363 L 126.829 103.221 L 126.649 103.022 L 126.516 102.791 L 126.433 102.536 L 126.405 102.270 L 126.428 102.033 L 126.438 101.985 L 126.446 101.982 L 126.438 101.985 L 125.823 101.370 L 125.826 101.364 L 125.823 101.370 L 119.579 101.370 L 119.573 101.360 L 119.579 101.370 L 119.536 101.442 L 119.377 101.620 L 119.334 101.660 L 119.140 101.798 L 118.896 101.907 L 118.663 101.958 L 118.605 101.964 L 118.366 101.963 L 118.104 101.907 L 117.860 101.798 L 117.666 101.660 L 117.623 101.620 L 117.464 101.442 L 117.344 101.237 L 117.320 101.183 L 117.248 100.956 L 117.220 100.690 L 117.380 100.690 L 117.408 100.445 L 117.477 100.234 L 117.587 100.042 L 117.751 99.858 L 117.929 99.727 L 117.980 99.701 L 117.980 98.798 L 117.929 98.773 L 117.751 98.642 L 117.587 98.458 L 117.477 98.266 L 117.408 98.055 L 117.381 97.823 L 117.381 97.797 L 117.404 97.577 L 117.477 97.354 L 117.594 97.152 L 117.751 96.978 L 117.940 96.840 L 118.154 96.745 L 118.383 96.696 L 118.605 96.695 L 118.629 96.698 L 118.858 96.749 L 119.060 96.840 L 119.249 96.978 L 119.406 97.152 L 119.517 97.343 L 119.596 97.577 L 119.620 97.810 L 119.597 98.030 L 119.523 98.266 L 119.406 98.468 L 119.258 98.633 L 119.071 98.773 L 119.020 98.798 L 119.020 99.701 L 119.071 99.727 L 119.258 99.867 L 119.406 100.032 L 119.486 100.170 L 126.105 100.170 L 126.218 100.183 L 126.293 100.206 L 126.384 100.252 L 126.464 100.314 L 127.352 101.201 L 127.568 101.156 L 127.790 101.155 L 128.019 101.202 L 128.245 101.300 L 128.425 101.430 L 128.591 101.612 L 128.708 101.814 L 128.781 102.037 L 128.805 102.270 L 128.781 102.503 L 128.708 102.725 L 128.591 102.928 L 128.434 103.102 L 128.245 103.240 L 128.031 103.335 L 127.802 103.384 L 127.580 103.384 L 127.339 103.335 L 127.125 103.240 L 126.936 103.102 L 126.779 102.928 L 126.662 102.725 L 126.589 102.503 L 126.566 102.257 L 126.589 102.037 L 126.620 101.941 L 125.890 101.210 L 119.486 101.210 L 119.406 101.348 L 119.249 101.522 L 119.060 101.660 L 118.858 101.751 L 118.629 101.802 L 118.605 101.805 L 118.383 101.804 L 118.142 101.751 L 117.929 101.653 L 117.751 101.522 L 117.602 101.358 L 117.587 101.338 L 117.472 101.134 L 117.404 100.923 L 117.380 100.690 L 117.220 100.690 L 117.248 100.424 L 117.320 100.197 L 117.344 100.143 L 117.464 99.938 L 117.623 99.760 L 117.666 99.720 L 117.820 99.609 L 117.829 99.613 L 117.820 99.609 L 117.820 98.891 L 117.829 98.887 L 117.820 98.891 L 117.644 98.761 L 117.483 98.585 L 117.449 98.538 L 117.331 98.331 L 117.248 98.076 L 117.222 97.839 L 117.222 97.781 L 117.243 97.573 L 117.256 97.516 L 117.320 97.317 L 117.344 97.263 L 117.464 97.058 L 117.623 96.880 L 117.666 96.840 L 117.860 96.702 L 118.104 96.593 L 118.337 96.542 L 118.395 96.535 L 118.634 96.537 L 118.867 96.585 L 118.923 96.603 L 119.140 96.702 L 119.334 96.840 L 119.377 96.880 L 119.535 97.058 L 119.669 97.289 L 119.752 97.544 L 119.778 97.781 L 119.778 97.839 L 119.752 98.076 L 119.680 98.303 L 119.656 98.357 L 119.551 98.538 L 119.517 98.585 L 119.356 98.761 L 119.180 98.891 L 119.171 98.887 L 119.180 98.891 L 119.180 99.609 L 119.172 99.613 L 119.180 99.609 L 119.334 99.720 L 119.377 99.760 L 119.536 99.938 L 119.579 100.010 L 119.573 100.020 L 119.579 100.010 L 126.105 100.010 L 126.210 100.019 L 126.264 100.030 L 126.339 100.052 L 126.378 100.069 L 126.464 100.175 L 126.536 100.279 L 126.666 100.448 L 126.840 100.635 L 127.033 100.803 L 127.247 100.953 L 127.404 101.042 L 127.948 101.040 L 128.078 101.114 L 128.287 101.260 L 128.445 101.395 L 128.559 101.508 L 128.689 101.620 L 128.559 101.508 L 128.445 101.395 L 128.287 101.260 L 128.177 101.181 L 128.056 101.129 L 127.810 101.077 L 127.560 101.077 L 127.378 101.114 L 127.374 101.125 L 127.378 101.114 L 127.148 100.885 L 127.072 100.832" fill="none" stroke="#000000" stroke-width="0.2"/>
  <path d="M 134.155 102.817 L 134.142 102.799 L 132.600 101.256 L 132.594 101.259 L 132.600 101.256 L 132.600 93.749 L 132.594 93.746 L 132.600 93.749 L 133.693 92.656 L 133.690 92.645 L 133.693 92.656 L 133.854 92.690 L 133.895 92.694 L 134.125 92.693 L 134.351 92.647 L 134.390 92.634 L 134.600 92.539 L 134.803 92.392 L 134.971 92.205 L 135.096 91.988 L 135.174 91.749 L 135.191 91.600 L 135.172 91.580 L 135.191 91.600 L 136.530 91.600 L 136.553 91.577 L 136.530 91.600 L 136.530 92.000 L 136.534 92.039 L 136.545 92.077 L 136.564 92.111 L 136.589 92.141 L 136.619 92.166 L 136.653 92.185 L 136.691 92.196 L 136.730 92.200 L 138.730 92.200 L 138.769 92.196 L 138.807 92.185 L 138.841 92.166 L 138.871 92.141 L 138.896 92.111 L 138.915 92.077 L 138.926 92.039 L 138.930 92.000 L 138.930 90.000 L 138.926 89.961 L 138.915 89.923 L 138.896 89.889 L 138.871 89.859 L 138.841 89.834 L 138.807 89.815 L 138.769 89.804 L 138.730 89.800 L 136.730 89.800 L 136.691 89.804 L 136.653 89.815 L 136.619 89.834 L 136.589 89.859 L 136.564 89.889 L 136.545 89.923 L 136.534 89.961 L 136.530 90.000 L 136.530 90.400 L 136.553 90.423 L 136.530 90.400 L 134.600 90.400 L 134.577 90.423 L 134.600 90.400 L 134.600 83.500 L 134.588 83.383 L 134.561 83.289 L 134.546 83.253 L 134.509 83.183 L 134.487 83.151 L 134.424 83.076 L 132.829 81.480 L 132.769 81.469 L 132.829 81.480 L 134.075 80.924 L 135.623 79.800 L 136.902 78.378 L 137.859 76.722 L 138.450 74.902 L 138.650 73.000 L 138.450 71.098 L 137.859 69.278 L 136.914 67.639 L 136.889 67.606 L 135.623 66.200 L 134.075 65.076 L 132.327 64.298 L 130.477 63.903 L 130.436 63.899 L 128.564 63.899 L 128.523 63.903 L 126.672 64.298 L 124.925 65.076 L 123.377 66.200 L 122.111 67.606 L 122.086 67.639 L 121.151 69.260 L 121.134 69.298 L 120.550 71.098 L 120.350 73.000 L 120.550 74.902 L 121.141 76.722 L 122.097 78.378 L 123.363 79.785 L 123.394 79.813 L 124.925 80.924 L 126.653 81.695 L 126.693 81.708 L 128.523 82.097 L 128.564 82.101 L 128.900 82.101 L 128.923 82.078 L 128.900 82.101 L 128.900 82.751 L 128.906 82.754 L 128.900 82.751 L 127.307 84.344 L 127.310 84.355 L 127.307 84.344 L 127.125 84.307 L 126.895 84.305 L 126.854 84.310 L 126.629 84.359 L 126.400 84.461 L 126.213 84.595 L 126.182 84.623 L 126.042 84.778 L 126.018 84.812 L 125.904 85.012 L 125.826 85.251 L 125.800 85.500 L 125.823 85.729 L 125.832 85.770 L 125.896 85.969 L 125.913 86.007 L 126.029 86.205 L 126.197 86.392 L 126.400 86.539 L 126.629 86.641 L 126.875 86.693 L 127.125 86.693 L 127.371 86.641 L 127.600 86.539 L 127.803 86.392 L 127.958 86.222 L 127.982 86.188 L 128.096 85.988 L 128.174 85.749 L 128.200 85.500 L 128.174 85.251 L 128.156 85.192 L 128.147 85.189 L 128.156 85.192 L 129.924 83.424 L 129.999 83.333 L 130.046 83.247 L 130.061 83.211 L 130.088 83.117 L 130.100 83.000 L 130.100 82.101 L 130.077 82.078 L 130.100 82.101 L 130.456 82.100 L 131.525 81.874 L 131.528 81.863 L 131.525 81.874 L 133.400 83.749 L 133.406 83.746 L 133.400 83.749 L 133.400 90.461 L 133.409 90.465 L 133.400 90.461 L 133.382 90.472 L 133.213 90.595 L 133.182 90.623 L 133.029 90.795 L 132.904 91.012 L 132.826 91.250 L 132.801 91.479 L 132.801 91.521 L 132.826 91.749 L 132.844 91.808 L 132.856 91.811 L 132.844 91.808 L 131.576 93.076 L 131.501 93.167 L 131.454 93.253 L 131.439 93.289 L 131.416 93.364 L 131.409 93.402 L 131.400 93.500 L 131.400 101.505 L 131.406 101.583 L 131.425 101.675 L 131.459 101.763 L 131.506 101.845 L 131.576 101.929 L 134.105 104.458 L 134.111 104.456 L 134.105 104.458 L 134.105 105.497 L 134.116 105.604 L 134.149 105.706 L 134.191 105.781 L 134.216 105.815 L 134.260 105.864 L 134.291 105.892 L 134.361 105.941 L 134.440 105.977 L 134.479 105.990 L 134.543 106.004 L 134.617 106.010 L 135.992 106.010 L 136.067 106.004 L 136.151 105.985 L 136.230 105.951 L 136.266 105.930 L 136.335 105.878 L 136.407 105.799 L 136.451 105.725 L 136.468 105.686 L 136.488 105.624 L 136.497 105.583 L 136.505 105.497 L 136.505 104.122 L 136.497 104.037 L 136.488 103.996 L 136.461 103.914 L 136.407 103.821 L 136.335 103.742 L 136.249 103.679 L 136.151 103.635 L 136.046 103.613 L 134.954 103.610 L 134.951 103.616 L 134.954 103.610 L 134.768 103.425 L 134.869 103.494 L 134.973 103.554 L 134.988 103.558 L 134.987 103.561 L 134.988 103.558 L 135.198 103.577 L 135.412 103.578 L 135.680 103.553 L 135.798 103.531 L 136.055 103.533 L 136.176 103.559 L 136.263 103.596 L 136.313 103.625 L 136.389 103.682 L 136.472 103.774 L 136.520 103.855 L 136.544 103.909 L 136.564 103.971 L 136.577 104.028 L 136.585 104.122 L 136.583 105.527 L 136.572 105.621 L 136.544 105.711 L 136.520 105.765 L 136.472 105.846 L 136.410 105.917 L 136.366 105.956 L 136.289 106.011 L 136.176 106.061 L 136.083 106.082 L 135.992 106.090 L 134.570 106.088 L 134.463 106.068 L 134.407 106.050 L 134.321 106.011 L 134.221 105.938 L 134.138 105.846 L 134.090 105.765 L 134.066 105.711 L 134.046 105.649 L 134.033 105.592 L 134.025 105.497 L 134.025 104.492 L 134.031 104.489 L 134.025 104.492 L 133.158 103.624 L 133.102 103.554 L 133.027 103.473 L 131.514 101.959 L 131.403 101.830 L 131.385 101.794 L 131.347 101.694 L 131.326 101.590 L 131.320 101.505 L 131.320 93.500 L 131.329 93.394 L 131.340 93.341 L 131.363 93.266 L 131.384 93.215 L 131.435 93.122 L 131.501 93.040 L 132.753 91.785 L 132.761 91.788 L 132.753 91.785 L 132.743 91.737 L 132.722 91.529 L 132.722 91.471 L 132.748 91.234 L 132.831 90.979 L 132.948 90.772 L 132.983 90.725 L 133.144 90.549 L 133.320 90.419 L 133.329 90.423 L 133.320 90.419 L 133.320 83.782 L 133.326 83.779 L 133.320 83.782 L 131.499 81.961 L 131.503 81.950 L 131.499 81.961 L 130.465 82.179 L 130.180 82.181 L 130.157 82.159 L 130.180 82.181 L 130.180 83.000 L 130.167 83.133 L 130.137 83.234 L 130.116 83.285 L 130.065 83.378 L 129.981 83.481 L 128.247 85.215 L 128.238 85.212 L 128.247 85.215 L 128.257 85.263 L 128.280 85.500 L 128.252 85.766 L 128.169 86.021 L 128.051 86.228 L 128.017 86.275 L 127.856 86.451 L 127.640 86.608 L 127.396 86.717 L 127.163 86.768 L 127.105 86.774 L 126.866 86.773 L 126.633 86.725 L 126.577 86.707 L 126.386 86.622 L 126.335 86.593 L 126.144 86.451 L 125.964 86.252 L 125.831 86.021 L 125.756 85.794 L 125.743 85.737 L 125.722 85.529 L 125.722 85.471 L 125.748 85.234 L 125.820 85.007 L 125.844 84.953 L 125.964 84.748 L 126.123 84.570 L 126.166 84.530 L 126.335 84.407 L 126.386 84.378 L 126.604 84.283 L 126.866 84.227 L 127.134 84.227 L 127.281 84.257 L 127.285 84.267 L 127.281 84.257 L 128.820 82.718 L 128.826 82.721 L 128.820 82.718 L 128.820 82.181 L 128.843 82.158 L 128.820 82.181 L 128.564 82.181 L 128.506 82.175 L 126.676 81.786 L 126.620 81.768 L 124.885 80.993 L 123.324 79.859 L 122.033 78.425 L 121.081 76.780 L 121.057 76.727 L 120.479 74.947 L 120.467 74.890 L 120.270 73.000 L 120.430 73.000 L 120.628 74.886 L 121.214 76.689 L 122.162 78.331 L 123.422 79.731 L 123.441 79.748 L 124.965 80.855 L 126.685 81.622 L 126.709 81.629 L 128.540 82.018 L 128.980 82.021 L 128.980 82.785 L 127.333 84.431 L 127.117 84.386 L 126.883 84.386 L 126.654 84.435 L 126.451 84.524 L 126.260 84.660 L 126.242 84.677 L 126.094 84.842 L 125.983 85.033 L 125.972 85.056 L 125.902 85.280 L 125.880 85.500 L 125.908 85.745 L 125.977 85.956 L 126.094 86.158 L 126.251 86.332 L 126.429 86.463 L 126.451 86.476 L 126.666 86.568 L 126.883 86.614 L 127.129 86.612 L 127.346 86.565 L 127.560 86.470 L 127.749 86.332 L 127.898 86.168 L 128.023 85.956 L 128.095 85.733 L 128.119 85.487 L 128.095 85.267 L 128.065 85.171 L 129.868 83.368 L 129.932 83.289 L 129.975 83.210 L 130.010 83.101 L 130.020 83.000 L 130.020 82.021 L 130.448 82.020 L 131.551 81.787 L 133.480 83.715 L 133.480 90.511 L 133.429 90.537 L 133.242 90.677 L 133.094 90.842 L 132.977 91.044 L 132.904 91.267 L 132.881 91.487 L 132.904 91.733 L 132.935 91.829 L 131.632 93.132 L 131.568 93.211 L 131.525 93.290 L 131.488 93.410 L 131.480 93.500 L 131.480 101.505 L 131.485 101.577 L 131.503 101.657 L 131.533 101.732 L 131.574 101.803 L 131.632 101.873 L 134.185 104.425 L 134.186 105.510 L 134.194 105.587 L 134.222 105.673 L 134.268 105.752 L 134.328 105.819 L 134.401 105.872 L 134.472 105.904 L 134.560 105.926 L 134.611 105.930 L 135.999 105.930 L 136.050 105.926 L 136.114 105.912 L 136.198 105.878 L 136.282 105.819 L 136.349 105.741 L 136.392 105.662 L 136.416 105.587 L 136.424 105.510 L 136.425 104.122 L 136.416 104.033 L 136.392 103.958 L 136.342 103.868 L 136.282 103.801 L 136.209 103.748 L 136.126 103.711 L 136.038 103.692 L 134.920 103.690 L 132.520 101.290 L 132.520 93.715 L 133.667 92.569 L 133.883 92.614 L 134.105 92.615 L 134.334 92.568 L 134.560 92.470 L 134.749 92.332 L 134.906 92.158 L 135.023 91.956 L 135.096 91.733 L 135.119 91.520 L 136.610 91.520 L 136.612 92.023 L 136.630 92.067 L 136.645 92.085 L 136.684 92.111 L 136.707 92.118 L 138.730 92.120 L 138.776 92.111 L 138.797 92.100 L 138.830 92.067 L 138.848 92.023 L 138.850 92.000 L 138.848 89.977 L 138.830 89.933 L 138.797 89.900 L 138.753 89.882 L 138.730 89.880 L 136.707 89.882 L 136.663 89.900 L 136.645 89.915 L 136.630 89.933 L 136.612 89.977 L 136.610 90.480 L 134.520 90.480 L 134.520 83.500 L 134.510 83.399 L 134.484 83.312 L 134.438 83.221 L 134.368 83.132 L 132.690 81.454 L 134.035 80.855 L 135.569 79.740 L 136.838 78.331 L 137.786 76.689 L 138.372 74.886 L 138.570 73.000 L 138.372 71.114 L 137.786 69.311 L 136.845 67.679 L 136.830 67.659 L 135.569 66.260 L 134.035 65.145 L 132.303 64.374 L 130.460 63.982 L 130.436 63.979 L 128.564 63.979 L 128.540 63.982 L 126.697 64.374 L 124.976 65.139 L 124.954 65.152 L 123.441 66.252 L 123.422 66.269 L 122.162 67.669 L 121.214 69.311 L 120.628 71.114 L 120.430 73.000 L 120.270 73.000 L 120.472 71.081 L 121.057 69.273 L 121.081 69.220 L 122.017 67.599 L 122.051 67.552 L 123.324 66.141 L 124.885 65.007 L 126.648 64.222 L 128.535 63.821 L 130.465 63.821 L 132.352 64.222 L 134.115 65.007 L 135.653 66.122 L 135.697 66.162 L 136.967 67.575 L 137.919 69.220 L 137.942 69.273 L 138.521 71.053 L 138.533 71.110 L 138.730 73.000 L 138.533 74.890 L 138.521 74.947 L 137.942 76.727 L 137.919 76.780 L 136.967 78.425 L 135.676 79.859 L 134.115 80.993 L 132.968 81.506 L 132.907 81.495 L 132.968 81.506 L 134.481 83.019 L 134.565 83.122 L 134.616 83.215 L 134.637 83.266 L 134.667 83.367 L 134.680 83.500 L 134.680 90.320 L 134.657 90.343 L 134.680 90.320 L 136.450 90.320 L 136.473 90.343 L 136.450 90.320 L 136.450 90.000 L 136.455 89.945 L 136.471 89.893 L 136.497 89.844 L 136.532 89.802 L 136.574 89.767 L 136.623 89.741 L 136.675 89.725 L 136.730 89.720 L 138.730 89.720 L 138.785 89.725 L 138.837 89.741 L 138.886 89.767 L 138.928 89.802 L 138.963 89.844 L 138.989 89.893 L 139.005 89.945 L 139.010 90.000 L 139.010 90.498 L 138.972 90.758 L 138.961 90.972 L 138.972 91.242 L 139.010 91.502 L 139.010 92.000 L 139.005 92.055 L 138.989 92.107 L 138.963 92.156 L 138.928 92.198 L 138.886 92.233 L 138.837 92.259 L 138.785 92.275 L 138.730 92.280 L 136.730 92.280 L 136.675 92.275 L 136.623 92.259 L 136.574 92.233 L 136.532 92.198 L 136.497 92.156 L 136.471 92.107 L 136.455 92.055 L 136.450 92.000 L 136.450 91.680 L 136.473 91.657 L 136.450 91.680 L 135.263 91.680 L 135.246 91.661 L 135.263 91.680 L 135.252 91.766 L 135.169 92.021 L 135.035 92.252 L 134.856 92.451 L 134.640 92.608 L 134.423 92.707 L 134.367 92.725 L 134.163 92.768 L 134.105 92.774 L 133.866 92.773 L 133.718 92.743 L 133.715 92.733 L 133.718 92.743 L 132.680 93.782 L 132.674 93.779 L 132.680 93.782 L 132.680 101.223 L 132.674 101.226 L 132.680 101.223 L 133.974 102.517 L 134.012 102.590 L 134.156 102.819 L 134.286 102.988 L 134.459 103.174 L 134.653 103.343 L 134.768 103.425" fill="none" stroke="#000000" stroke-width="0.2"/>
  <path d="M 136.578 101.852 L 136.516 101.801 L 136.443 101.752 L 136.324 101.685 L 136.236 101.572 L 136.094 101.422 L 135.907 101.260 L 135.698 101.114 L 135.568 101.040 L 134.962 101.040 L 134.938 101.045 L 134.882 101.063 L 134.691 101.148 L 134.640 101.177 L 134.449 101.319 L 134.288 101.495 L 134.254 101.542 L 134.136 101.749 L 134.053 102.004 L 134.025 102.270 L 134.046 102.483 L 134.081 102.549 L 134.220 102.771 L 134.374 102.968 L 134.516 103.118 L 134.738 103.307 L 134.912 103.426 L 135.004 103.479 L 135.202 103.497 L 135.408 103.498 L 135.671 103.473 L 135.781 103.453 L 135.919 103.392 L 135.970 103.363 L 136.161 103.221 L 136.209 103.171 L 136.211 103.143 L 136.209 103.171 L 137.820 104.782 L 137.826 104.779 L 137.820 104.782 L 137.820 105.218 L 137.826 105.221 L 137.820 105.218 L 136.718 106.320 L 136.721 106.326 L 136.718 106.320 L 133.180 106.320 L 133.157 106.343 L 133.180 106.320 L 133.180 104.000 L 133.171 103.894 L 133.160 103.841 L 133.137 103.766 L 133.093 103.672 L 133.042 103.607 L 132.970 103.529 L 131.472 102.031 L 131.412 101.966 L 131.339 101.877 L 129.965 100.504 L 129.881 100.438 L 129.828 100.405 L 129.731 100.361 L 129.689 100.347 L 129.585 100.326 L 129.522 100.321 L 129.237 100.320 L 129.234 100.326 L 129.237 100.320 L 128.932 100.015 L 128.923 100.018 L 128.932 100.015 L 128.942 99.967 L 128.965 99.730 L 128.942 99.493 L 128.929 99.436 L 128.854 99.209 L 128.736 99.002 L 128.702 98.955 L 128.541 98.779 L 128.325 98.621 L 128.108 98.523 L 128.052 98.505 L 128.028 98.500 L 127.404 98.502 L 127.249 98.414 L 127.072 98.292 L 126.871 98.124 L 126.694 97.940 L 126.536 97.739 L 126.392 97.510 L 126.354 97.437 L 119.655 90.738 L 119.642 90.742 L 119.655 90.738 L 119.680 90.683 L 119.744 90.484 L 119.757 90.427 L 119.780 90.190 L 119.757 89.953 L 119.747 89.905 L 119.739 89.902 L 119.747 89.905 L 122.499 87.150 L 122.565 87.068 L 122.616 86.975 L 122.637 86.924 L 122.660 86.849 L 122.671 86.795 L 122.680 86.690 L 122.680 86.581 L 122.672 86.577 L 122.680 86.581 L 122.856 86.451 L 123.035 86.252 L 123.169 86.021 L 123.252 85.766 L 123.280 85.500 L 123.257 85.263 L 123.244 85.206 L 123.169 84.979 L 123.035 84.748 L 122.877 84.570 L 122.834 84.530 L 122.640 84.391 L 122.396 84.283 L 122.163 84.232 L 122.105 84.225 L 121.866 84.227 L 121.604 84.283 L 121.386 84.378 L 121.335 84.407 L 121.144 84.549 L 120.964 84.748 L 120.831 84.979 L 120.748 85.234 L 120.722 85.471 L 120.722 85.529 L 120.748 85.766 L 120.820 85.993 L 120.844 86.047 L 120.964 86.252 L 121.123 86.430 L 121.166 86.470 L 121.220 86.509 L 121.260 86.506 L 121.220 86.509 L 118.781 88.947 L 118.785 88.957 L 118.781 88.947 L 118.634 88.917 L 118.395 88.915 L 118.337 88.922 L 118.133 88.965 L 118.077 88.983 L 117.860 89.082 L 117.666 89.220 L 117.623 89.260 L 117.464 89.438 L 117.344 89.643 L 117.320 89.697 L 117.248 89.924 L 117.220 90.190 L 117.380 90.190 L 117.220 90.190 L 117.248 90.456 L 117.331 90.711 L 117.449 90.918 L 117.483 90.965 L 117.644 91.141 L 117.835 91.283 L 117.886 91.312 L 118.104 91.407 L 118.366 91.463 L 118.458 91.464 L 118.460 91.459 L 118.458 91.464 L 126.438 99.445 L 126.446 99.442 L 126.438 99.445 L 126.428 99.493 L 126.405 99.730 L 126.428 99.967 L 126.438 100.016 L 126.493 100.082 L 126.600 100.230 L 126.727 100.396 L 126.925 100.605 L 127.118 100.767 L 127.291 100.886 L 127.422 100.960 L 127.966 100.958 L 128.121 101.046 L 128.337 101.197 L 128.499 101.336 L 128.637 101.471 L 128.795 101.604 L 128.895 101.676 L 128.955 101.680 L 129.218 101.680 L 129.221 101.674 L 129.218 101.680 L 131.820 104.282 L 131.826 104.279 L 131.820 104.282 L 131.821 107.027 L 131.833 107.133 L 131.872 107.260 L 131.920 107.354 L 131.951 107.400 L 132.019 107.481 L 132.100 107.549 L 132.146 107.579 L 132.240 107.628 L 132.367 107.667 L 132.500 107.680 L 137.000 107.680 L 137.133 107.667 L 137.260 107.628 L 137.354 107.579 L 137.400 107.549 L 137.481 107.481 L 138.981 105.981 L 139.049 105.900 L 139.079 105.854 L 139.116 105.785 L 139.137 105.734 L 139.167 105.633 L 139.179 105.527 L 139.180 104.523 L 138.996 104.287 L 138.868 104.132 L 136.638 101.902 L 136.568 101.844 L 136.497 101.803 L 136.422 101.773 L 136.361 101.758 L 136.292 101.753 L 136.211 101.612 L 136.045 101.430 L 135.865 101.300 L 135.663 101.209 L 135.434 101.158 L 135.188 101.156 L 134.959 101.205 L 134.745 101.300 L 134.556 101.438 L 134.399 101.612 L 134.277 101.826 L 134.209 102.037 L 134.186 102.257 L 134.208 102.490 L 134.282 102.725 L 134.399 102.928 L 134.556 103.102 L 134.745 103.240 L 134.959 103.335 L 135.200 103.384 L 135.422 103.384 L 135.663 103.331 L 135.876 103.233 L 136.054 103.102 L 136.203 102.938 L 137.980 104.715 L 137.980 105.285 L 136.785 106.480 L 133.020 106.480 L 133.019 103.988 L 133.012 103.910 L 132.984 103.812 L 132.938 103.721 L 132.876 103.641 L 129.861 100.626 L 129.798 100.574 L 129.727 100.533 L 129.670 100.509 L 129.591 100.488 L 129.500 100.480 L 129.170 100.480 L 128.750 100.059 L 128.781 99.963 L 128.805 99.730 L 128.777 99.485 L 128.708 99.274 L 128.598 99.082 L 128.434 98.898 L 128.245 98.760 L 128.019 98.662 L 127.790 98.615 L 127.568 98.616 L 127.352 98.661 L 119.454 90.764 L 119.523 90.646 L 119.597 90.410 L 119.619 90.177 L 119.596 89.957 L 119.565 89.861 L 122.376 87.049 L 122.438 86.969 L 122.484 86.878 L 122.507 86.803 L 122.520 86.690 L 122.520 86.488 L 122.571 86.463 L 122.749 86.332 L 122.906 86.158 L 123.023 85.956 L 123.092 85.745 L 123.119 85.513 L 123.119 85.487 L 123.096 85.267 L 123.028 85.056 L 122.906 84.842 L 122.740 84.660 L 122.560 84.530 L 122.358 84.439 L 122.117 84.386 L 121.871 84.388 L 121.654 84.435 L 121.451 84.524 L 121.251 84.668 L 121.087 84.852 L 120.977 85.044 L 120.908 85.255 L 120.880 85.500 L 120.908 85.745 L 120.977 85.956 L 121.087 86.148 L 121.251 86.332 L 121.429 86.463 L 121.470 86.484 L 118.833 89.121 L 118.617 89.076 L 118.395 89.075 L 118.166 89.122 L 117.940 89.220 L 117.742 89.367 L 117.594 89.532 L 117.483 89.723 L 117.404 89.957 L 117.381 90.203 L 117.404 90.423 L 117.477 90.646 L 117.594 90.848 L 117.742 91.013 L 117.940 91.160 L 118.166 91.258 L 118.383 91.304 L 118.524 91.305 L 126.620 99.401 L 126.589 99.497 L 126.565 99.730 L 126.593 99.975 L 126.662 100.186 L 126.772 100.378 L 126.936 100.562 L 127.125 100.700 L 127.351 100.798 L 127.580 100.844 L 127.802 100.844 L 128.018 100.799 L 128.587 101.368 L 128.642 101.415 L 128.711 101.459 L 128.785 101.491 L 128.883 101.515 L 128.955 101.520 L 129.285 101.520 L 131.980 104.215 L 131.980 107.000 L 131.990 107.101 L 132.020 107.199 L 132.062 107.279 L 132.124 107.359 L 132.202 107.425 L 132.301 107.480 L 132.399 107.510 L 132.500 107.520 L 137.000 107.520 L 137.101 107.510 L 137.199 107.480 L 137.298 107.425 L 137.368 107.368 L 138.868 105.868 L 138.938 105.779 L 138.984 105.688 L 139.010 105.601 L 139.019 105.512 L 139.020 104.500 L 139.012 104.410 L 138.984 104.312 L 138.938 104.221 L 138.912 104.185 L 139.092 104.412 L 139.100 104.500 L 139.099 105.520 L 139.088 105.617 L 139.061 105.711 L 139.046 105.747 L 139.009 105.816 L 138.987 105.849 L 138.924 105.924 L 137.424 107.424 L 137.349 107.487 L 137.316 107.509 L 137.230 107.554 L 137.117 107.588 L 137.000 107.600 L 132.500 107.600 L 132.383 107.588 L 132.270 107.554 L 132.183 107.509 L 132.151 107.487 L 132.090 107.437 L 132.063 107.410 L 132.013 107.349 L 131.991 107.316 L 131.946 107.230 L 131.912 107.117 L 131.901 107.020 L 131.900 104.249 L 131.906 104.246 L 131.900 104.249 L 129.251 101.600 L 129.254 101.594 L 129.251 101.600 L 128.939 101.599 L 128.846 101.589 L 128.785 101.575 L 128.742 101.560 L 128.614 101.450 L 128.498 101.335 L 128.337 101.197 L 128.222 101.115 L 127.992 100.886 L 127.995 100.875 L 127.992 100.886 L 127.831 100.920 L 127.790 100.924 L 127.560 100.923 L 127.334 100.877 L 127.295 100.864 L 127.193 100.819 L 127.083 100.740 L 126.925 100.605 L 126.754 100.428 L 126.587 100.212 L 126.517 100.000 L 126.508 99.959 L 126.485 99.730 L 126.511 99.481 L 126.529 99.422 L 126.541 99.419 L 126.529 99.422 L 118.491 91.385 L 118.493 91.379 L 118.491 91.385 L 118.375 91.383 L 118.149 91.337 L 118.110 91.324 L 117.900 91.229 L 117.713 91.095 L 117.682 91.067 L 117.529 90.895 L 117.404 90.678 L 117.326 90.439 L 117.301 90.211 L 117.301 90.169 L 117.326 89.940 L 117.396 89.721 L 117.413 89.683 L 117.529 89.485 L 117.682 89.313 L 117.713 89.285 L 117.900 89.151 L 118.110 89.056 L 118.149 89.043 L 118.375 88.997 L 118.605 88.995 L 118.646 89.000 L 118.807 89.034 L 118.810 89.045 L 118.807 89.034 L 121.343 86.499 L 121.385 86.496 L 121.343 86.499 L 121.197 86.392 L 121.042 86.222 L 121.018 86.188 L 120.904 85.988 L 120.832 85.770 L 120.823 85.729 L 120.800 85.500 L 120.823 85.271 L 120.832 85.230 L 120.904 85.012 L 121.018 84.812 L 121.042 84.778 L 121.197 84.608 L 121.382 84.472 L 121.419 84.451 L 121.629 84.359 L 121.854 84.310 L 121.895 84.305 L 122.125 84.307 L 122.351 84.353 L 122.390 84.366 L 122.600 84.461 L 122.787 84.595 L 122.818 84.623 L 122.971 84.795 L 123.087 84.993 L 123.104 85.031 L 123.174 85.251 L 123.199 85.479 L 123.199 85.521 L 123.177 85.729 L 123.168 85.770 L 123.096 85.988 L 122.971 86.205 L 122.803 86.392 L 122.618 86.528 L 122.600 86.539 L 122.592 86.535 L 122.600 86.539 L 122.600 86.690 L 122.591 86.788 L 122.584 86.826 L 122.561 86.901 L 122.546 86.937 L 122.509 87.006 L 122.487 87.039 L 122.437 87.100 L 119.656 89.882 L 119.647 89.879 L 119.656 89.882 L 119.674 89.940 L 119.699 90.169 L 119.699 90.211 L 119.677 90.419 L 119.668 90.460 L 119.596 90.679 L 119.555 90.751 L 119.536 90.754 L 119.555 90.751 L 126.522 97.719 L 126.666 97.908 L 126.839 98.094 L 127.032 98.261 L 127.148 98.345 L 127.378 98.574 L 127.375 98.585 L 127.378 98.574 L 127.539 98.540 L 127.580 98.535 L 127.810 98.537 L 128.036 98.583 L 128.075 98.596 L 128.285 98.691 L 128.488 98.838 L 128.643 99.008 L 128.667 99.042 L 128.781 99.242 L 128.853 99.460 L 128.862 99.501 L 128.885 99.730 L 128.859 99.979 L 128.841 100.038 L 128.832 100.041 L 128.841 100.038 L 129.203 100.400 L 129.201 100.406 L 129.203 100.400 L 129.500 100.400 L 129.609 100.410 L 129.670 100.425 L 129.758 100.459 L 129.840 100.506 L 129.913 100.565 L 132.937 103.590 L 132.987 103.651 L 133.009 103.683 L 133.046 103.753 L 133.061 103.789 L 133.084 103.864 L 133.091 103.902 L 133.100 104.000 L 133.100 106.400 L 133.077 106.423 L 133.100 106.400 L 136.751 106.400 L 136.754 106.406 L 136.751 106.400 L 137.900 105.251 L 137.906 105.254 L 137.900 105.251 L 137.900 104.749 L 137.906 104.746 L 137.900 104.749 L 136.206 103.054 L 136.205 103.019 L 136.206 103.054 L 136.123 103.147 L 136.092 103.175 L 135.905 103.309 L 135.695 103.404 L 135.656 103.417 L 135.430 103.463 L 135.180 103.463 L 134.934 103.411 L 134.813 103.359 L 134.738 103.307 L 134.516 103.118 L 134.374 102.968 L 134.220 102.771 L 134.201 102.739 L 134.131 102.519 L 134.105 102.270 L 134.131 102.020 L 134.209 101.782 L 134.334 101.565 L 134.502 101.378 L 134.705 101.231 L 134.915 101.136 L 134.954 101.123 L 135.180 101.077 L 135.410 101.075 L 135.451 101.080 L 135.676 101.129 L 135.797 101.181 L 135.872 101.233 L 136.119 101.336 L 136.295 101.518 L 136.379 101.624 L 136.487 101.685 L 136.563 101.737 L 136.632 101.792 L 139.017 104.178 L 139.087 104.235 L 139.186 104.290 L 139.284 104.320 L 139.385 104.330 L 140.514 104.330 L 140.594 104.468 L 140.742 104.633 L 140.940 104.780 L 141.166 104.878 L 141.383 104.924 L 141.617 104.924 L 141.858 104.871 L 142.060 104.780 L 142.249 104.642 L 142.406 104.468 L 142.517 104.277 L 142.596 104.043 L 142.620 103.810 L 142.596 103.577 L 142.523 103.354 L 142.413 103.162 L 142.249 102.978 L 142.071 102.847 L 141.858 102.749 L 141.834 102.742 L 141.617 102.696 L 141.395 102.695 L 141.371 102.698 L 141.142 102.749 L 140.940 102.840 L 140.751 102.978 L 140.594 103.152 L 140.514 103.290 L 139.600 103.290 L 136.370 100.059 L 136.401 99.963 L 136.424 99.743 L 136.401 99.497 L 136.322 99.263 L 136.211 99.072 L 136.063 98.907 L 135.865 98.760 L 135.639 98.662 L 135.410 98.615 L 135.188 98.616 L 134.971 98.662 L 134.947 98.669 L 134.734 98.767 L 134.556 98.898 L 134.407 99.062 L 134.392 99.082 L 134.277 99.286 L 134.209 99.497 L 134.185 99.730 L 134.025 99.730 L 134.185 99.730 L 134.209 99.963 L 134.277 100.174 L 134.399 100.388 L 134.565 100.570 L 134.745 100.700 L 134.959 100.795 L 135.200 100.844 L 135.422 100.844 L 135.638 100.799 L 138.971 104.132 L 139.243 104.475 L 139.385 104.490 L 140.421 104.490 L 140.427 104.480 L 140.421 104.490 L 140.464 104.562 L 140.644 104.761 L 140.835 104.903 L 140.886 104.932 L 141.104 105.027 L 141.337 105.078 L 141.395 105.084 L 141.634 105.083 L 141.867 105.035 L 141.923 105.017 L 142.140 104.918 L 142.356 104.761 L 142.536 104.562 L 142.656 104.357 L 142.680 104.303 L 142.752 104.076 L 142.780 103.810 L 142.752 103.544 L 142.669 103.289 L 142.551 103.082 L 142.517 103.035 L 142.377 102.879 L 142.334 102.840 L 142.140 102.701 L 141.896 102.593 L 141.663 102.542 L 141.605 102.536 L 141.366 102.537 L 141.133 102.585 L 141.077 102.603 L 140.860 102.701 L 140.666 102.840 L 140.623 102.879 L 140.464 103.058 L 140.421 103.130 L 140.427 103.140 L 140.421 103.130 L 139.667 103.130 L 139.664 103.136 L 139.667 103.130 L 136.552 100.015 L 136.543 100.018 L 136.552 100.015 L 136.562 99.967 L 136.585 99.730 L 136.564 99.517 L 136.529 99.451 L 136.390 99.229 L 136.263 99.064 L 136.094 98.882 L 135.872 98.693 L 135.698 98.574 L 135.568 98.500 L 134.962 98.500 L 134.909 98.513 L 134.691 98.608 L 134.640 98.637 L 134.449 98.779 L 134.288 98.955 L 134.254 99.002 L 134.136 99.209 L 134.061 99.436 L 134.048 99.493 L 134.025 99.730 L 134.048 99.967 L 134.061 100.024 L 134.136 100.251 L 134.254 100.458 L 134.288 100.505 L 134.449 100.681 L 134.640 100.823 L 134.691 100.852 L 134.882 100.937 L 134.962 100.960 L 135.586 100.958 L 135.741 101.046 L 135.918 101.168 L 136.119 101.336 L 135.957 101.197 L 135.842 101.115 L 135.612 100.886 L 135.615 100.875 L 135.612 100.886 L 135.430 100.923 L 135.180 100.923 L 134.934 100.871 L 134.724 100.779 L 134.687 100.758 L 134.502 100.622 L 134.334 100.435 L 134.209 100.218 L 134.131 99.979 L 134.105 99.730 L 134.128 99.501 L 134.137 99.460 L 134.209 99.242 L 134.323 99.042 L 134.347 99.008 L 134.502 98.838 L 134.705 98.691 L 134.915 98.596 L 134.954 98.583 L 135.180 98.537 L 135.410 98.535 L 135.451 98.540 L 135.676 98.589 L 135.797 98.641 L 135.907 98.720 L 136.065 98.855 L 136.236 99.032 L 136.405 99.250 L 136.479 99.481 L 136.504 99.709 L 136.504 99.751 L 136.482 99.959 L 136.461 100.038 L 136.452 100.041 L 136.461 100.038 L 139.633 103.210 L 139.631 103.216 L 139.633 103.210 L 140.468 103.210 L 140.474 103.221 L 140.468 103.210 L 140.529 103.105 L 140.682 102.933 L 140.713 102.905 L 140.900 102.771 L 141.110 102.676 L 141.149 102.663 L 141.375 102.617 L 141.625 102.617 L 141.871 102.669 L 142.081 102.761 L 142.118 102.782 L 142.303 102.918 L 142.471 103.105 L 142.587 103.303 L 142.604 103.341 L 142.674 103.561 L 142.700 103.810 L 142.674 104.059 L 142.596 104.298 L 142.482 104.498 L 142.458 104.532 L 142.303 104.702 L 142.118 104.838 L 142.081 104.859 L 141.890 104.944 L 141.851 104.957 L 141.625 105.003 L 141.395 105.004 L 141.354 105.000 L 141.149 104.957 L 141.110 104.944 L 140.900 104.849 L 140.697 104.702 L 140.529 104.515 L 140.468 104.410 L 140.474 104.399 L 140.468 104.410 L 139.385 104.410 L 139.268 104.398 L 139.157 104.365" fill="none" stroke="#000000" stroke-width="0.2"/>
  <path d="M 136.468 99.201 L 137.423 100.155 L 137.446 100.230 L 137.491 100.316 L 137.513 100.349 L 137.576 100.424 L 137.651 100.487 L 137.683 100.509 L 137.753 100.546 L 137.789 100.561 L 137.883 100.588 L 138.000 100.600 L 144.251 100.600 L 144.254 100.594 L 144.251 100.600 L 144.400 100.748 L 144.406 100.746 L 144.400 100.748 L 144.400 105.900 L 144.423 105.923 L 144.400 105.900 L 140.000 105.900 L 139.902 105.909 L 139.864 105.916 L 139.789 105.939 L 139.753 105.954 L 139.683 105.991 L 139.651 106.013 L 139.576 106.076 L 137.251 108.400 L 137.254 108.406 L 137.251 108.400 L 129.249 108.400 L 129.246 108.406 L 129.249 108.400 L 128.285 107.436 L 128.279 107.439 L 128.285 107.436 L 128.285 105.849 L 128.276 105.845 L 128.285 105.849 L 128.303 105.838 L 128.472 105.715 L 128.503 105.687 L 128.656 105.515 L 128.772 105.317 L 128.789 105.279 L 128.859 105.059 L 128.885 104.810 L 128.859 104.561 L 128.789 104.341 L 128.772 104.303 L 128.667 104.122 L 128.643 104.088 L 128.488 103.918 L 128.285 103.771 L 128.075 103.676 L 128.036 103.663 L 127.810 103.617 L 127.560 103.617 L 127.314 103.669 L 127.085 103.771 L 126.882 103.918 L 126.727 104.088 L 126.703 104.122 L 126.589 104.322 L 126.511 104.561 L 126.485 104.810 L 126.511 105.059 L 126.529 105.117 L 126.538 105.120 L 126.529 105.117 L 123.936 107.710 L 123.939 107.716 L 123.936 107.710 L 119.532 107.710 L 119.526 107.721 L 119.532 107.710 L 119.471 107.605 L 119.318 107.433 L 119.287 107.405 L 119.100 107.271 L 118.871 107.169 L 118.646 107.120 L 118.605 107.115 L 118.395 107.115 L 118.354 107.120 L 118.129 107.169 L 117.919 107.261 L 117.882 107.282 L 117.713 107.405 L 117.682 107.433 L 117.529 107.605 L 117.413 107.803 L 117.396 107.841 L 117.326 108.060 L 117.300 108.310 L 117.326 108.559 L 117.404 108.798 L 117.518 108.998 L 117.542 109.032 L 117.697 109.202 L 117.882 109.338 L 117.919 109.359 L 118.129 109.451 L 118.354 109.500 L 118.395 109.504 L 118.625 109.503 L 118.851 109.457 L 118.890 109.444 L 119.100 109.349 L 119.287 109.215 L 119.318 109.187 L 119.471 109.015 L 119.532 108.910 L 119.526 108.899 L 119.532 108.910 L 124.185 108.910 L 124.263 108.904 L 124.355 108.885 L 124.471 108.837 L 124.550 108.786 L 124.609 108.734 L 127.085 106.258 L 127.134 106.139 L 127.085 106.258 L 127.085 107.685 L 127.097 107.802 L 127.124 107.896 L 127.139 107.932 L 127.176 108.001 L 127.198 108.034 L 127.261 108.109 L 128.576 109.424 L 128.651 109.487 L 128.683 109.509 L 128.753 109.546 L 128.789 109.561 L 128.883 109.588 L 129.000 109.600 L 137.520 109.599 L 137.598 109.591 L 137.636 109.584 L 137.711 109.561 L 137.747 109.546 L 137.816 109.509 L 137.849 109.487 L 137.924 109.424 L 140.249 107.100 L 140.246 107.094 L 140.249 107.100 L 145.000 107.100 L 145.117 107.088 L 145.211 107.061 L 145.247 107.046 L 145.316 107.009 L 145.349 106.987 L 145.424 106.924 L 145.487 106.849 L 145.509 106.816 L 145.546 106.747 L 145.561 106.711 L 145.588 106.617 L 145.600 106.500 L 145.600 100.500 L 145.588 100.383 L 145.561 100.289 L 145.546 100.253 L 145.499 100.167 L 145.424 100.076 L 144.924 99.576 L 144.865 99.524 L 144.786 99.473 L 144.700 99.435 L 144.578 99.406 L 144.500 99.400 L 138.363 99.400 L 138.361 99.406 L 138.363 99.400 L 136.753 97.790 L 136.634 97.741 L 136.753 97.790 L 137.441 97.790 L 137.444 97.784 L 137.441 97.790 L 138.076 98.424 L 138.135 98.476 L 138.214 98.527 L 138.300 98.565 L 138.422 98.594 L 138.500 98.600 L 143.000 98.600 L 143.109 98.589 L 143.200 98.565 L 143.286 98.527 L 143.365 98.476 L 143.424 98.424 L 145.424 96.424 L 145.499 96.333 L 145.546 96.247 L 145.561 96.211 L 145.588 96.117 L 145.599 96.020 L 145.599 95.980 L 145.588 95.883 L 145.561 95.789 L 145.546 95.753 L 145.499 95.667 L 145.437 95.590 L 143.000 93.151 L 142.994 93.154 L 143.000 93.151 L 143.000 76.250 L 142.977 76.227 L 143.000 76.250 L 145.250 76.250 L 145.289 76.246 L 145.327 76.235 L 145.361 76.216 L 145.391 76.191 L 145.416 76.161 L 145.435 76.127 L 145.446 76.089 L 145.450 76.050 L 145.450 69.950 L 145.446 69.911 L 145.435 69.873 L 145.416 69.839 L 145.391 69.809 L 145.361 69.784 L 145.327 69.765 L 145.289 69.754 L 145.250 69.750 L 139.550 69.750 L 139.511 69.754 L 139.473 69.765 L 139.439 69.784 L 139.409 69.809 L 139.384 69.839 L 139.365 69.873 L 139.354 69.911 L 139.350 69.950 L 139.350 76.050 L 139.354 76.089 L 139.365 76.127 L 139.384 76.161 L 139.409 76.191 L 139.439 76.216 L 139.473 76.235 L 139.511 76.246 L 139.550 76.250 L 141.800 76.250 L 141.823 76.227 L 141.800 76.250 L 141.800 93.400 L 141.809 93.498 L 141.816 93.536 L 141.839 93.611 L 141.854 93.647 L 141.901 93.733 L 141.976 93.824 L 144.151 96.000 L 144.185 96.000 L 144.151 96.000 L 142.751 97.400 L 142.754 97.406 L 142.751 97.400 L 141.911 97.400 L 142.126 97.354 L 142.242 97.320 L 142.718 97.320 L 142.721 97.326 L 142.718 97.320 L 144.038 96.000 L 144.071 96.000 L 144.038 96.000 L 141.919 93.881 L 141.835 93.778 L 141.784 93.685 L 141.763 93.634 L 141.740 93.559 L 141.729 93.505 L 141.720 93.400 L 141.720 76.330 L 141.743 76.307 L 141.720 76.330 L 139.550 76.330 L 139.495 76.325 L 139.443 76.309 L 139.394 76.283 L 139.352 76.248 L 139.317 76.206 L 139.291 76.157 L 139.275 76.105 L 139.270 76.050 L 139.270 69.950 L 139.275 69.895 L 139.291 69.843 L 139.317 69.794 L 139.352 69.752 L 139.394 69.717 L 139.443 69.691 L 139.495 69.675 L 139.550 69.670 L 145.250 69.670 L 145.305 69.675 L 145.357 69.691 L 145.406 69.717 L 145.448 69.752 L 145.483 69.794 L 145.509 69.843 L 145.525 69.895 L 145.530 69.950 L 145.530 76.050 L 145.525 76.105 L 145.509 76.157 L 145.483 76.206 L 145.448 76.248 L 145.406 76.283 L 145.357 76.309 L 145.305 76.325 L 145.250 76.330 L 143.080 76.330 L 143.057 76.307 L 143.080 76.330 L 143.080 93.118 L 143.074 93.121 L 143.080 93.118 L 145.499 95.540 L 145.565 95.622 L 145.616 95.715 L 145.637 95.766 L 145.667 95.867 L 145.679 95.973 L 145.679 96.027 L 145.667 96.133 L 145.637 96.234 L 145.616 96.285 L 145.565 96.378 L 145.481 96.481 L 143.481 98.481 L 143.417 98.536 L 143.328 98.595 L 143.231 98.639 L 143.128 98.667 L 143.085 98.674 L 143.000 98.680 L 138.500 98.680 L 138.415 98.674 L 138.311 98.653 L 138.269 98.639 L 138.172 98.595 L 138.083 98.536 L 138.019 98.481 L 137.408 97.870 L 137.411 97.864 L 137.408 97.870 L 136.947 97.870 L 136.827 97.821 L 136.947 97.870 L 138.397 99.320 L 138.394 99.326 L 138.397 99.320 L 144.500 99.320 L 144.585 99.326 L 144.689 99.347 L 144.731 99.361 L 144.828 99.405 L 144.917 99.463 L 144.981 99.519 L 145.481 100.019 L 145.565 100.122 L 145.616 100.215 L 145.637 100.266 L 145.667 100.367 L 145.680 100.500 L 145.680 106.500 L 145.667 106.633 L 145.637 106.734 L 145.616 106.785 L 145.579 106.854 L 145.549 106.900 L 145.499 106.960 L 145.460 106.999 L 145.400 107.049 L 145.354 107.079 L 145.285 107.116 L 145.234 107.137 L 145.133 107.167 L 145.027 107.179 L 140.282 107.180 L 140.279 107.174 L 140.282 107.180 L 137.981 109.481 L 137.900 109.549 L 137.854 109.579 L 137.785 109.616 L 137.734 109.637 L 137.659 109.660 L 137.605 109.671 L 137.527 109.679 L 129.000 109.680 L 128.867 109.667 L 128.766 109.637 L 128.715 109.616 L 128.646 109.579 L 128.600 109.549 L 128.519 109.481 L 127.204 108.166 L 127.136 108.085 L 127.105 108.039 L 127.069 107.970 L 127.047 107.919 L 127.018 107.818 L 127.005 107.685 L 127.005 106.452 L 127.054 106.333 L 127.005 106.452 L 124.666 108.791 L 124.602 108.846 L 124.513 108.905 L 124.416 108.949 L 124.374 108.963 L 124.270 108.984 L 124.185 108.990 L 119.579 108.990 L 119.573 108.980 L 119.579 108.990 L 119.536 109.062 L 119.377 109.240 L 119.334 109.280 L 119.140 109.418 L 118.923 109.517 L 118.867 109.535 L 118.634 109.583 L 118.395 109.584 L 118.337 109.578 L 118.104 109.527 L 117.886 109.432 L 117.835 109.403 L 117.666 109.280 L 117.623 109.240 L 117.464 109.062 L 117.344 108.857 L 117.320 108.803 L 117.248 108.576 L 117.220 108.310 L 117.380 108.310 L 117.408 108.065 L 117.477 107.854 L 117.587 107.662 L 117.751 107.478 L 117.940 107.340 L 118.154 107.245 L 118.371 107.198 L 118.395 107.195 L 118.629 107.198 L 118.846 107.245 L 119.060 107.340 L 119.258 107.487 L 119.406 107.652 L 119.486 107.790 L 123.970 107.790 L 126.620 105.139 L 126.589 105.043 L 126.566 104.823 L 126.589 104.577 L 126.662 104.354 L 126.787 104.142 L 126.936 103.978 L 127.125 103.840 L 127.339 103.745 L 127.568 103.696 L 127.814 103.698 L 128.031 103.745 L 128.245 103.840 L 128.434 103.978 L 128.583 104.142 L 128.598 104.162 L 128.713 104.366 L 128.781 104.577 L 128.805 104.810 L 128.781 105.043 L 128.713 105.254 L 128.591 105.468 L 128.443 105.633 L 128.256 105.773 L 128.205 105.798 L 128.205 107.470 L 129.215 108.480 L 137.285 108.480 L 139.632 106.132 L 139.721 106.062 L 139.812 106.016 L 139.910 105.988 L 140.000 105.980 L 144.480 105.980 L 144.480 100.715 L 144.285 100.520 L 138.000 100.520 L 137.899 100.510 L 137.812 100.484 L 137.711 100.432 L 137.632 100.368 L 137.562 100.279 L 137.520 100.199 L 137.493 100.113 L 135.638 98.259 L 135.422 98.304 L 135.200 98.305 L 134.971 98.258 L 134.745 98.160 L 134.556 98.022 L 134.399 97.848 L 134.282 97.646 L 134.209 97.423 L 134.185 97.190 L 134.209 96.957 L 134.282 96.734 L 134.399 96.532 L 134.556 96.358 L 134.745 96.220 L 134.959 96.125 L 135.188 96.076 L 135.410 96.075 L 135.651 96.125 L 135.876 96.227 L 136.063 96.367 L 136.211 96.532 L 136.291 96.670 L 137.690 96.670 L 137.781 96.678 L 137.860 96.699 L 137.917 96.723 L 137.988 96.764 L 138.058 96.822 L 138.715 97.480 L 142.785 97.480 L 144.265 96.000 L 142.032 93.768 L 141.962 93.679 L 141.916 93.588 L 141.890 93.501 L 141.880 93.400 L 141.880 76.170 L 139.550 76.170 L 139.527 76.168 L 139.483 76.150 L 139.465 76.135 L 139.439 76.096 L 139.430 76.050 L 139.430 69.950 L 139.439 69.904 L 139.465 69.865 L 139.504 69.839 L 139.550 69.830 L 145.250 69.830 L 145.296 69.839 L 145.317 69.850 L 145.350 69.883 L 145.368 69.927 L 145.370 69.950 L 145.370 76.050 L 145.361 76.096 L 145.350 76.117 L 145.317 76.150 L 145.273 76.168 L 145.250 76.170 L 142.920 76.170 L 142.920 93.185 L 145.376 95.641 L 145.432 95.711 L 145.475 95.790 L 145.510 95.899 L 145.519 96.012 L 145.510 96.101 L 145.484 96.188 L 145.432 96.289 L 145.368 96.368 L 143.368 98.368 L 143.313 98.415 L 143.244 98.459 L 143.170 98.491 L 143.091 98.512 L 143.000 98.520 L 138.500 98.520 L 138.428 98.515 L 138.330 98.491 L 138.256 98.459 L 138.187 98.415 L 138.132 98.368 L 137.475 97.710 L 136.560 97.710 L 138.330 99.480 L 144.500 99.480 L 144.572 99.485 L 144.670 99.509 L 144.744 99.541 L 144.813 99.585 L 144.868 99.632 L 145.368 100.132 L 145.432 100.211 L 145.484 100.312 L 145.510 100.399 L 145.520 100.500 L 145.520 106.500 L 145.510 106.601 L 145.484 106.688 L 145.425 106.798 L 145.368 106.868 L 145.298 106.925 L 145.210 106.975 L 145.101 107.010 L 145.000 107.020 L 140.215 107.020 L 137.868 109.368 L 137.798 109.425 L 137.710 109.475 L 137.613 109.507 L 137.512 109.519 L 129.000 109.520 L 128.899 109.510 L 128.812 109.484 L 128.721 109.438 L 128.632 109.368 L 127.317 108.053 L 127.260 107.983 L 127.210 107.895 L 127.175 107.786 L 127.165 107.685 L 127.165 106.065 L 124.553 108.678 L 124.498 108.725 L 124.429 108.769 L 124.355 108.801 L 124.276 108.822 L 124.185 108.830 L 119.486 108.830 L 119.406 108.968 L 119.258 109.133 L 119.060 109.280 L 118.834 109.378 L 118.617 109.424 L 118.383 109.424 L 118.142 109.371 L 117.940 109.280 L 117.751 109.142 L 117.594 108.968 L 117.477 108.766 L 117.404 108.543 L 117.380 108.310 L 117.220 108.310 L 117.248 108.044 L 117.320 107.817 L 117.344 107.763 L 117.449 107.582 L 117.483 107.535 L 117.644 107.359 L 117.860 107.202 L 118.104 107.093 L 118.366 107.037 L 118.605 107.035 L 118.663 107.042 L 118.896 107.093 L 119.114 107.188 L 119.165 107.217 L 119.356 107.359 L 119.536 107.558 L 119.579 107.630 L 119.573 107.640 L 119.579 107.630 L 123.903 107.630 L 123.906 107.636 L 123.903 107.630 L 126.438 105.095 L 126.446 105.098 L 126.438 105.095 L 126.428 105.047 L 126.405 104.810 L 126.433 104.544 L 126.516 104.289 L 126.633 104.082 L 126.668 104.035 L 126.829 103.859 L 127.020 103.717 L 127.071 103.688 L 127.262 103.603 L 127.342 103.580 L 128.028 103.580 L 128.108 103.603 L 128.299 103.688 L 128.350 103.717 L 128.519 103.840 L 128.562 103.879 L 128.720 104.058 L 128.854 104.289 L 128.937 104.544 L 128.963 104.781 L 128.963 104.839 L 128.942 105.047 L 128.929 105.104 L 128.854 105.331 L 128.720 105.562 L 128.541 105.761 L 128.365 105.891 L 128.356 105.887 L 128.365 105.891 L 128.365 107.403 L 128.359 107.406 L 128.365 107.403 L 129.282 108.320 L 129.279 108.326 L 129.282 108.320 L 137.218 108.320 L 137.221 108.326 L 137.218 108.320 L 139.519 106.019 L 139.600 105.951 L 139.646 105.920 L 139.715 105.884 L 139.766 105.862 L 139.841 105.840 L 139.895 105.829 L 140.000 105.820 L 144.320 105.820 L 144.343 105.843 L 144.320 105.820 L 144.320 100.782 L 144.326 100.779 L 144.320 100.782 L 144.218 100.680 L 144.221 100.674 L 144.218 100.680 L 138.000 100.680 L 137.867 100.667 L 137.766 100.637 L 137.715 100.616 L 137.622 100.565 L 137.519 100.481 L 137.451 100.400 L 137.420 100.354 L 137.372 100.260 L 137.353 100.197 L 136.636 99.483 L 136.598 99.410 L 136.484 99.225 L 136.324 99.012 L 136.119 98.796 L 135.920 98.629 L 135.741 98.506 L 135.690 98.475 L 135.585 98.421 L 135.586 98.417 L 135.585 98.421 L 134.962 98.420 L 134.909 98.407 L 134.665 98.298 L 134.449 98.141 L 134.269 97.942 L 134.136 97.711 L 134.053 97.456 L 134.025 97.190 L 134.053 96.924 L 134.136 96.669 L 134.269 96.438 L 134.449 96.239 L 134.665 96.081 L 134.909 95.973 L 135.171 95.917 L 135.410 95.916 L 135.468 95.922 L 135.701 95.973 L 135.945 96.081 L 136.139 96.220 L 136.182 96.260 L 136.341 96.438 L 136.384 96.510 L 136.378 96.520 L 136.384 96.510 L 137.690 96.510 L 137.775 96.516 L 137.818 96.523 L 137.879 96.537 L 137.979 96.575 L 138.071 96.628 L 138.107 96.653 L 138.171 96.709 L 138.782 97.320 L 138.779 97.326 L 138.782 97.320 L 140.758 97.320 L 140.874 97.354 L 141.087 97.400 L 141.350 97.430 L 141.650 97.430 L 141.911 97.400 L 141.861 97.408 L 141.605 97.432 L 141.350 97.430 L 141.089 97.400 L 138.748 97.400 L 138.746 97.406 L 138.748 97.400 L 138.103 96.755 L 138.030 96.696 L 137.976 96.663 L 137.890 96.625 L 137.799 96.600 L 137.690 96.590 L 136.337 96.590 L 136.331 96.601 L 136.337 96.590 L 136.276 96.485 L 136.108 96.298 L 135.905 96.151 L 135.676 96.049 L 135.430 95.997 L 135.200 95.995 L 135.159 96.000 L 134.954 96.043 L 134.915 96.056 L 134.705 96.151 L 134.502 96.298 L 134.334 96.485 L 134.209 96.702 L 134.131 96.941 L 134.105 97.190 L 134.131 97.439 L 134.209 97.678 L 134.323 97.878 L 134.347 97.912 L 134.502 98.082 L 134.705 98.229 L 134.934 98.331 L 135.180 98.383 L 135.430 98.383 L 135.612 98.346 L 135.615 98.335 L 135.612 98.346 L 135.842 98.575 L 135.918 98.628" fill="none" stroke="#000000" stroke-width="0.2"/>
  <path d="M 141.104 97.321 L 140.894 97.277 L 140.782 97.244 L 140.644 97.141 L 140.464 96.942 L 140.331 96.711 L 140.248 96.456 L 140.220 96.190 L 140.243 95.953 L 140.253 95.905 L 140.261 95.902 L 140.253 95.905 L 139.771 95.420 L 139.705 95.338 L 139.654 95.245 L 139.633 95.194 L 139.603 95.093 L 139.590 94.960 L 139.590 92.081 L 139.599 92.077 L 139.590 92.081 L 139.414 91.951 L 139.253 91.775 L 139.219 91.728 L 139.101 91.521 L 139.089 91.489 L 139.052 91.234 L 139.041 91.027 L 139.070 91.000 L 139.150 91.000 L 139.174 91.233 L 139.242 91.444 L 139.364 91.658 L 139.521 91.832 L 139.699 91.963 L 139.750 91.988 L 139.750 94.960 L 139.760 95.061 L 139.795 95.170 L 139.838 95.249 L 139.894 95.319 L 140.435 95.861 L 140.404 95.957 L 140.381 96.177 L 140.404 96.423 L 140.477 96.646 L 140.594 96.848 L 140.760 97.030 L 140.940 97.160 L 141.154 97.255 L 141.383 97.304 L 141.605 97.305 L 141.629 97.302 L 141.858 97.251 L 142.060 97.160 L 142.240 97.030 L 142.398 96.858 L 142.413 96.838 L 142.523 96.646 L 142.596 96.423 L 142.620 96.190 L 142.597 95.970 L 142.523 95.734 L 142.406 95.532 L 142.249 95.358 L 142.071 95.227 L 141.846 95.125 L 141.617 95.076 L 141.383 95.076 L 141.167 95.121 L 140.790 94.745 L 140.790 91.988 L 140.841 91.963 L 141.019 91.832 L 141.183 91.648 L 141.293 91.456 L 141.362 91.245 L 141.389 91.013 L 141.389 90.987 L 141.362 90.755 L 141.293 90.544 L 141.176 90.342 L 141.019 90.168 L 140.841 90.037 L 140.616 89.935 L 140.375 89.885 L 140.153 89.886 L 139.924 89.935 L 139.710 90.030 L 139.530 90.160 L 139.364 90.342 L 139.242 90.556 L 139.174 90.767 L 139.150 91.000 L 139.070 91.000 L 139.041 91.027 L 139.052 90.766 L 139.089 90.511 L 139.114 90.453 L 139.219 90.272 L 139.253 90.225 L 139.414 90.049 L 139.630 89.891 L 139.874 89.783 L 140.136 89.727 L 140.375 89.725 L 140.433 89.732 L 140.666 89.783 L 140.910 89.891 L 141.126 90.049 L 141.287 90.225 L 141.321 90.272 L 141.426 90.453 L 141.450 90.507 L 141.522 90.734 L 141.548 90.971 L 141.548 91.029 L 141.527 91.237 L 141.514 91.294 L 141.439 91.521 L 141.306 91.752 L 141.126 91.951 L 140.950 92.081 L 140.941 92.077 L 140.950 92.081 L 140.950 94.678 L 140.944 94.681 L 140.950 94.678 L 141.218 94.947 L 141.215 94.957 L 141.218 94.947 L 141.366 94.917 L 141.634 94.917 L 141.896 94.973 L 142.114 95.068 L 142.165 95.097 L 142.356 95.239 L 142.536 95.438 L 142.656 95.643 L 142.680 95.697 L 142.752 95.924 L 142.780 96.190 L 142.757 96.427 L 142.744 96.484 L 142.669 96.711 L 142.551 96.918 L 142.517 96.965 L 142.356 97.141 L 142.218 97.244 L 142.106 97.277 L 141.852 97.328 L 141.896 97.321 L 142.100 97.229 L 142.303 97.082 L 142.471 96.895 L 142.587 96.697 L 142.604 96.659 L 142.668 96.460 L 142.677 96.419 L 142.700 96.190 L 142.677 95.961 L 142.668 95.920 L 142.596 95.702 L 142.471 95.485 L 142.303 95.298 L 142.118 95.162 L 142.081 95.141 L 141.871 95.049 L 141.646 95.000 L 141.605 94.995 L 141.375 94.997 L 141.193 95.034 L 141.190 95.045 L 141.193 95.034 L 140.870 94.711 L 140.864 94.714 L 140.870 94.711 L 140.870 92.039 L 140.861 92.035 L 140.870 92.039 L 140.888 92.028 L 141.057 91.905 L 141.088 91.877 L 141.241 91.705 L 141.357 91.507 L 141.374 91.469 L 141.444 91.249 L 141.469 91.021 L 141.469 90.979 L 141.444 90.750 L 141.366 90.512 L 141.241 90.295 L 141.088 90.123 L 141.057 90.095 L 140.888 89.972 L 140.851 89.951 L 140.641 89.859 L 140.395 89.807 L 140.145 89.807 L 139.899 89.859 L 139.670 89.961 L 139.483 90.095 L 139.452 90.123 L 139.312 90.278 L 139.288 90.312 L 139.174 90.512 L 139.102 90.730 L 139.093 90.771 L 139.070 91.000 L 139.093 91.229 L 139.102 91.270 L 139.174 91.488 L 139.299 91.705 L 139.452 91.877 L 139.483 91.905 L 139.652 92.028 L 139.670 92.039 L 139.679 92.035 L 139.670 92.039 L 139.670 94.960 L 139.682 95.077 L 139.709 95.171 L 139.724 95.207 L 139.771 95.293 L 139.833 95.370 L 140.344 95.882 L 140.353 95.879 L 140.344 95.882 L 140.326 95.941 L 140.300 96.190 L 140.323 96.419 L 140.332 96.460 L 140.404 96.678 L 140.518 96.878 L 140.542 96.912 L 140.682 97.067 L 140.713 97.095 L 140.900 97.229 L 141.104 97.321 L 141.396 97.352 L 141.603 97.352 L 141.852 97.328" fill="none" stroke="#000000" stroke-width="0.2"/>
</svg>
