<?xml version="1.0" encoding="UTF-8"?>
<svg xmlns="http://www.w3.org/2000/svg" width="33.00mm" height="32.81mm" viewBox="113.50 80.50 33.00 32.81">
  <circle cx="118.500" cy="90.190" r="0.400" fill="none" stroke="#000000" stroke-width="0.1"/>
  <circle cx="122.000" cy="85.500" r="0.400" fill="none" stroke="#000000" stroke-width="0.1"/>
  <circle cx="127.000" cy="85.500" r="0.400" fill="none" stroke="#000000" stroke-width="0.1"/>
  <circle cx="129.000" cy="91.500" r="0.400" fill="none" stroke="#000000" stroke-width="0.1"/>
  <circle cx="134.000" cy="91.500" r="0.400" fill="none" stroke="#000000" stroke-width="0.1"/>
  <circle cx="141.500" cy="96.190" r="0.400" fill="none" stroke="#000000" stroke-width="0.1"/>
  <circle cx="141.500" cy="103.810" r="0.400" fill="none" stroke="#000000" stroke-width="0.1"/>
  <circle cx="135.305" cy="104.810" r="0.400" fill="none" stroke="#000000" stroke-width="0.1"/>
  <circle cx="135.305" cy="102.270" r="0.400" fill="none" stroke="#000000" stroke-width="0.1"/>
  <circle cx="135.305" cy="99.730" r="0.400" fill="none" stroke="#000000" stroke-width="0.1"/>
  <circle cx="135.305" cy="97.190" r="0.400" fill="none" stroke="#000000" stroke-width="0.1"/>
  <circle cx="127.685" cy="97.190" r="0.400" fill="none" stroke="#000000" stroke-width="0.1"/>
  <circle cx="127.685" cy="99.730" r="0.400" fill="none" stroke="#000000" stroke-width="0.1"/>
  <circle cx="127.685" cy="102.270" r="0.400" fill="none" stroke="#000000" stroke-width="0.1"/>
  <circle cx="127.685" cy="104.810" r="0.400" fill="none" stroke="#000000" stroke-width="0.1"/>
  <circle cx="118.500" cy="97.810" r="0.400" fill="none" stroke="#000000" stroke-width="0.1"/>
  <circle cx="118.500" cy="100.690" r="0.400" fill="none" stroke="#000000" stroke-width="0.1"/>
  <circle cx="118.500" cy="108.310" r="0.400" fill="none" stroke="#000000" stroke-width="0.1"/>
  <circle cx="137.730" cy="91.000" r="0.450" fill="none" stroke="#000000" stroke-width="0.1"/>
  <circle cx="140.270" cy="91.000" r="0.450" fill="none" stroke="#000000" stroke-width="0.1"/>
</svg>
