<?xml version="1.0" encoding="UTF-8"?>
<svg xmlns="http://www.w3.org/2000/svg" width="71.80mm" height="85.30mm" viewBox="94.10 44.60 71.80 85.30">
  <path d="M 99.100 69.006 L 99.105 68.937 L 99.122 68.869 L 99.151 68.805 L 99.190 68.747 L 99.239 68.697 L 120.739 50.197 L 120.799 50.154 L 120.867 50.123 L 120.939 50.105 L 121.013 50.100 L 121.086 50.109 L 121.157 50.132 L 121.222 50.167 L 131.532 57.040 L 137.918 53.950 L 140.439 52.730 L 146.826 49.640 L 146.890 49.615 L 146.958 49.602 L 147.026 49.601 L 147.094 49.611 L 147.160 49.633 L 147.220 49.666 L 147.274 49.709 L 147.320 49.760 L 160.820 67.760 L 160.855 67.816 L 160.880 67.877 L 160.896 67.941 L 160.900 68.006 L 160.893 68.072 L 157.896 84.445 L 157.391 87.199 L 154.393 103.572 L 154.375 103.639 L 154.345 103.703 L 154.304 103.760 L 154.254 103.809 L 142.585 113.419 L 140.424 115.199 L 128.754 124.809 L 128.692 124.851 L 128.623 124.881 L 128.550 124.897 L 128.474 124.899 L 128.400 124.887 L 128.329 124.862 L 128.265 124.823 L 128.208 124.774 L 105.208 100.274 L 105.162 100.215 L 105.128 100.148 L 105.107 100.076 L 102.373 85.950 L 101.841 83.201 L 99.107 69.076" fill="none" stroke="#000000" stroke-width="0.2"/>
</svg>
